<?xml version="1.0" standalone="no"?>
<!DOCTYPE svg PUBLIC "-//W3C//DTD SVG 20010904//EN"
 "http://www.w3.org/TR/2001/REC-SVG-20010904/DTD/svg10.dtd">
<svg version="1.0" xmlns="http://www.w3.org/2000/svg"
 width="515.000000pt" height="515.000000pt" viewBox="0 0 515.000000 515.000000"
 preserveAspectRatio="xMidYMid meet">
<metadata>
Created by potrace 1.11, written by Peter Selinger 2001-2013
</metadata>
<g transform="translate(0.000000,515.000000) scale(0.100000,-0.100000)"
fill="#000000" stroke="none">
<path d="M4220 4822 c-118 -60 -177 -131 -248 -301 -17 -39 -60 -123 -97 -186
-66 -114 -67 -115 -150 -165 -105 -64 -145 -80 -193 -80 -35 0 -46 8 -121 84
-46 46 -86 88 -90 93 -25 36 -208 161 -311 212 -77 38 -94 42 -167 45 -129 4
-227 -30 -345 -120 -31 -24 -69 -49 -84 -54 -51 -20 -122 -18 -211 6 -172 45
-299 19 -347 -71 -34 -64 -66 -106 -120 -160 -67 -65 -84 -78 -261 -195 -82
-54 -184 -131 -225 -170 -91 -86 -153 -118 -240 -125 -107 -9 -173 -50 -225
-140 -31 -52 -63 -150 -72 -217 -18 -130 -2 -342 33 -431 7 -18 24 -9 -401
-209 -104 -49 -211 -99 -236 -111 -27 -12 -58 -39 -75 -62 -24 -33 -29 -50
-29 -100 0 -52 7 -75 52 -170 70 -146 76 -155 115 -188 24 -19 51 -29 86 -34
62 -7 48 -13 462 184 128 61 198 93 203 93 3 0 7 -12 11 -27 18 -84 28 -131
33 -158 2 -16 13 -61 23 -100 57 -221 145 -398 270 -545 81 -96 134 -183 145
-236 28 -149 37 -233 35 -334 -5 -313 -5 -314 13 -362 22 -57 67 -104 127
-131 42 -19 68 -21 375 -23 182 -2 497 -5 700 -8 398 -4 477 2 512 37 20 21
22 34 28 257 5 187 12 425 17 570 0 8 4 47 10 85 25 183 77 287 214 435 173
187 538 662 594 775 64 128 88 252 84 428 -1 58 -5 120 -8 139 -3 18 -8 58
-12 88 -19 155 -123 255 -326 314 -45 13 -84 28 -86 34 -1 5 34 28 80 50 172
83 255 114 287 107 14 -3 44 -7 66 -10 104 -12 228 -39 315 -66 179 -58 309
-45 441 43 140 94 240 240 268 392 7 39 9 185 2 217 0 4 -110 -42 -242 -102
-133 -60 -247 -109 -253 -109 -11 0 -47 71 -116 232 l-38 87 41 19 c23 11 58
26 78 35 41 19 154 70 219 100 25 11 47 21 50 22 28 8 100 50 100 58 0 24
-129 135 -191 164 -99 47 -123 53 -237 57 -70 3 -169 -10 -233 -29 -11 -4 -22
9 -38 40 -12 25 -23 45 -24 45 -1 -1 -18 -9 -37 -18z"/>
</g>
</svg>
