<?xml version="1.0" encoding="UTF-8"?>
<svg width="15px" height="15px" viewBox="0 0 15 15" version="1.1" xmlns="http://www.w3.org/2000/svg" xmlns:xlink="http://www.w3.org/1999/xlink">
    <!-- Generator: Sketch 52.2 (67145) - http://www.bohemiancoding.com/sketch -->
    <title>Fill 14</title>
    <desc>Created with Sketch.</desc>
    <g id="Page-1" stroke="none" stroke-width="1" fill="none" fill-rule="evenodd">
        <g id="Artboard" transform="translate(-180.000000, -34.000000)" style="fill: #ffffff;">
            <path d="M189.871661,35.5456794 L190.026661,35.3896794 C190.292661,35.1246794 190.275661,34.7886794 190.122661,34.6356794 L190.057661,34.5856794 C189.886661,34.4836794 189.600661,34.4996794 189.368661,34.7326794 L189.212661,34.8886794 L189.871661,35.5456794 Z M186.508661,38.6946794 C186.644661,38.6846794 186.794661,38.6206794 186.927661,38.4886794 L189.499661,35.9176794 L188.841661,35.2586794 L186.269661,37.8306794 C186.037661,38.0636794 186.021661,38.3496794 186.122661,38.5196794 L186.134661,38.5346794 L186.188661,38.5716794 L186.224661,38.6256794 L186.239661,38.6366794 C186.312661,38.6796794 186.406661,38.7016794 186.508661,38.6946794 Z M193.227661,38.7326794 L193.384661,38.5776794 C193.649661,38.3106794 193.633661,37.9756794 193.478661,37.8236794 L193.414661,37.7726794 C193.243661,37.6706794 192.958661,37.6866794 192.725661,37.9196794 L192.570661,38.0756794 L193.227661,38.7326794 Z M189.865661,41.8816794 C190.001661,41.8716794 190.152661,41.8086794 190.284661,41.6756794 L192.856661,39.1046794 L192.198661,38.4466794 L189.627661,41.0176794 C189.361661,41.2826794 189.378661,41.6196794 189.530661,41.7726794 C189.607661,41.8486794 189.729661,41.8906794 189.865661,41.8816794 Z M182.192661,44.7606794 C182.069661,44.7576794 181.962661,44.6686794 181.941661,44.5446794 L181.734661,43.3946794 L181.055661,44.0746794 C181.003661,44.1266794 180.936661,44.1516794 180.869661,44.1516794 C180.802661,44.1516794 180.735661,44.1266794 180.684661,44.0746794 C180.582661,43.9716794 180.582661,43.8056794 180.684661,43.7036794 L181.355661,43.0326794 L180.213661,42.8186794 C180.070661,42.7926794 179.977661,42.6546794 180.004661,42.5126794 C180.030661,42.3706794 180.168661,42.2766794 180.310661,42.3026794 L181.312661,42.4906794 L180.608661,41.7856794 C180.505661,41.6826794 180.505661,41.5166794 180.608661,41.4136794 L180.978661,41.4136794 L181.976661,42.4126794 L182.307661,42.0806794 L181.310661,41.0816794 C181.208661,40.9796794 181.208661,40.8136794 181.310661,40.7106794 L181.681661,40.7106794 L182.679661,41.7086794 L182.958661,41.4286794 L181.961661,40.4306794 C181.859661,40.3276794 181.859661,40.1616794 181.961661,40.0596794 L182.333661,40.0596794 L183.330661,41.0566794 L183.662661,40.7256794 L182.665661,39.7276794 C182.562661,39.6256794 182.562661,39.4586794 182.665661,39.3566794 L183.036661,39.3566794 L184.034661,40.3546794 L185.647661,38.7406794 L185.584661,38.6046794 C185.458661,38.2216794 185.593661,37.7666794 185.898661,37.4606794 L188.997661,34.3616794 C189.405661,33.9536794 190.078661,33.8496794 190.493661,34.2646794 L190.570661,34.3426794 L190.570661,34.3626794 L190.625661,34.4326794 C190.878661,34.8436794 190.754661,35.4046794 190.397661,35.7606794 L187.298661,38.8596794 C187.094661,39.0636794 186.823661,39.1916794 186.552661,39.2176794 C186.417661,39.2296794 186.281661,39.2166794 186.153661,39.1746794 L186.017661,39.1126794 L184.404661,40.7256794 L185.402661,41.7226794 C185.504661,41.8256794 185.504661,41.9916794 185.402661,42.0936794 C185.351661,42.1456794 185.283661,42.1716794 185.216661,42.1716794 C185.149661,42.1716794 185.081661,42.1456794 185.031661,42.0936794 L184.034661,41.0966794 L183.702661,41.4286794 L184.699661,42.4266794 C184.802661,42.5286794 184.802661,42.6946794 184.699661,42.7966794 C184.647661,42.8486794 184.580661,42.8746794 184.514661,42.8746794 C184.446661,42.8746794 184.379661,42.8486794 184.328661,42.7966794 L183.330661,41.7996794 L183.050661,42.0806794 L184.048661,43.0776794 C184.150661,43.1796794 184.150661,43.3456794 184.048661,43.4496794 C183.996661,43.5006794 183.929661,43.5256794 183.862661,43.5256794 C183.795661,43.5256794 183.727661,43.5006794 183.676661,43.4496794 L182.679661,42.4506794 L182.347661,42.7826794 L183.344661,43.7796794 C183.448661,43.8826794 183.448661,44.0486794 183.344661,44.1516794 C183.293661,44.2026794 183.225661,44.2276794 183.159661,44.2276794 C183.093661,44.2276794 183.025661,44.2026794 182.974661,44.1516794 L182.279661,43.4576794 L182.457661,44.4526794 C182.483661,44.5946794 182.387661,44.7306794 182.245661,44.7566794 C182.227661,44.7596794 182.209661,44.7606794 182.192661,44.7606794 Z M185.730661,48.0526794 L185.784661,47.9216794 C186.186661,46.8766794 186.022661,46.0896794 185.607661,45.6736794 C185.192661,45.2586794 184.423661,45.1086794 183.409661,45.5356794 L183.274661,45.5966794 L185.730661,48.0526794 Z M185.792661,48.7666794 C185.731661,48.7616794 185.673661,48.7376794 185.625661,48.6896794 L182.647661,45.7106794 C182.523661,45.5876794 182.552661,45.3806794 182.705661,45.2966794 C183.873661,44.6486794 184.957661,44.5946794 185.687661,45.0676794 L185.785661,45.1466794 L188.997661,41.9356794 L189.005661,41.9296794 L188.942661,41.7926794 C188.814661,41.4086794 188.949661,40.9536794 189.255661,40.6476794 L192.354661,37.5476794 C192.763661,37.1396794 193.436661,37.0366794 193.851661,37.4516794 L193.928661,37.5286794 L193.928661,37.5506794 L193.982661,37.6196794 C194.234661,38.0316794 194.112661,38.5906794 193.754661,38.9486794 L190.656661,42.0476794 C190.451661,42.2506794 190.181661,42.3786794 189.910661,42.4046794 C189.775661,42.4166794 189.639661,42.4036794 189.510661,42.3606794 L189.373661,42.2976794 L189.367661,42.3066794 L186.153661,45.5196794 L186.212661,45.5916794 C186.688661,46.3216794 186.656661,47.4236794 186.045661,48.6226794 C185.994661,48.7226794 185.891661,48.7726794 185.792661,48.7666794 Z" id="Fill-14"></path>
        </g>
    </g>
</svg>