<?xml version="1.0" encoding="UTF-8"?>
<svg width="11px" height="13px" viewBox="0 0 11 13" version="1.1" xmlns="http://www.w3.org/2000/svg" xmlns:xlink="http://www.w3.org/1999/xlink">
    <!-- Generator: Sketch 52.2 (67145) - http://www.bohemiancoding.com/sketch -->
    <title>Fill 34</title>
    <desc>Created with Sketch.</desc>
    <g id="Page-1" stroke="none" stroke-width="1" fill="none" fill-rule="evenodd">
        <g id="Artboard" transform="translate(-164.000000, -194.000000)" style="fill: #ffffff;">
            <path d="M167.09,197.567 C166.947,197.567 166.831,197.451 166.831,197.308 C166.831,197.166 166.947,197.049 167.09,197.049 L172.033,197.049 C172.176,197.049 172.292,197.166 172.292,197.308 C172.292,197.451 172.176,197.567 172.033,197.567 L167.09,197.567 Z M170.02,203.847 C169.962,203.846 169.904,203.825 169.856,203.785 L169.294,203.304 C169.185,203.211 169.173,203.047 169.265,202.938 C169.359,202.83 169.522,202.817 169.631,202.91 L170.193,203.39 C170.302,203.484 170.315,203.647 170.222,203.756 C170.17,203.818 170.095,203.848 170.02,203.847 Z M169.406,204.49 C170.121,204.49 170.702,203.909 170.702,203.194 C170.702,202.479 170.121,201.898 169.406,201.898 C168.691,201.898 168.109,202.479 168.109,203.194 C168.109,203.909 168.691,204.49 169.406,204.49 Z M169.406,205.009 C168.404,205.009 167.591,204.196 167.591,203.194 C167.591,202.193 168.404,201.38 169.406,201.38 C170.407,201.38 171.221,202.193 171.221,203.194 C171.221,204.196 170.407,205.009 169.406,205.009 Z M168.79,206.016 C168.646,206.016 168.53,205.899 168.53,205.756 C168.53,205.613 168.646,205.498 168.79,205.498 L170.21,205.498 C170.353,205.498 170.469,205.613 170.469,205.756 C170.469,205.899 170.353,206.016 170.21,206.016 L168.79,206.016 Z M172.242,206.579 C172.931,206.579 173.491,206.018 173.491,205.328 L173.491,197.673 C173.491,196.984 172.931,196.424 172.242,196.424 L166.721,196.424 C166.03,196.424 165.47,196.984 165.47,197.673 L165.47,205.328 C165.47,206.018 166.03,206.579 166.721,206.579 L172.242,206.579 Z M166.365,207 L165.411,206.518 C165.126,206.204 164.952,205.786 164.952,205.328 L164.952,197.673 C164.952,196.697 165.744,195.905 166.721,195.905 L168.444,195.905 L168.444,194.92 C168.444,194.777 168.56,194.661 168.703,194.661 C168.846,194.661 168.962,194.777 168.962,194.92 L168.962,195.905 L169.978,195.905 L169.978,194.92 C169.978,194.777 170.094,194.661 170.237,194.661 C170.38,194.661 170.496,194.777 170.496,194.92 L170.496,195.905 L172.242,195.905 C173.218,195.905 174.01,196.697 174.01,197.673 L174.01,205.328 C174.01,205.786 173.836,206.204 173.55,206.518 L172.595,207 L166.365,207 Z" id="Fill-34"></path>
        </g>
    </g>
</svg>