<?xml version="1.0" encoding="UTF-8"?>
<svg width="14px" height="15px" viewBox="0 0 14 15" version="1.1" xmlns="http://www.w3.org/2000/svg" xmlns:xlink="http://www.w3.org/1999/xlink">
    <!-- Generator: Sketch 52.2 (67145) - http://www.bohemiancoding.com/sketch -->
    <title>Fill 18</title>
    <desc>Created with Sketch.</desc>
    <g id="Page-1" stroke="none" stroke-width="1" fill="none" fill-rule="evenodd">
        <g id="Artboard" transform="translate(-183.000000, -72.000000)" style="fill: #ffffff;">
            <path d="M195.52955,76.1793074 L195.59655,76.1083074 C196.10055,75.5183074 196.16255,75.1073074 196.00355,74.7143074 C195.79155,74.1953074 195.17555,73.6303074 194.15755,72.8033074 C193.25155,72.0683074 192.08555,72.9113074 191.00755,74.1113074 L190.66455,74.5133074 L191.74255,75.6073074 L192.10455,75.2193074 C192.45655,74.8413074 193.16755,73.8943074 194.22255,74.8723074 L195.52955,76.1793074 Z M188.67655,78.2573074 L189.18355,77.6823074 L188.01755,76.3683074 L187.98155,76.4553074 L187.48655,76.9513074 L188.67655,78.2573074 Z M192.08355,78.3453074 C192.01755,78.3413074 191.95255,78.3133074 191.90555,78.2593074 L189.32855,75.3773074 C189.23355,75.2703074 189.24255,75.1073074 189.34955,75.0113074 C189.45555,74.9163074 189.61955,74.9253074 189.71555,75.0323074 L192.29155,77.9133074 C192.38755,78.0203074 192.37855,78.1843074 192.27155,78.2803074 C192.21755,78.3273074 192.14955,78.3483074 192.08355,78.3453074 Z M186.58855,80.5113074 L187.29755,79.8213074 L188.33155,78.6483074 L187.85255,78.1243074 L186.13855,80.0343074 L186.58855,80.5113074 Z M186.41855,83.2243074 C186.35255,83.2223074 186.28655,83.1953074 186.23755,83.1433074 C186.13955,83.0393074 186.14455,82.8753074 186.24855,82.7763074 L186.69555,82.3563074 C186.79955,82.2583074 186.96355,82.2633074 187.06155,82.3673074 C187.15955,82.4723074 187.15455,82.6353074 187.05155,82.7343074 L186.60455,83.1543074 C186.55255,83.2033074 186.48455,83.2263074 186.41855,83.2243074 Z M184.64955,84.8413074 C184.58255,84.8393074 184.51755,84.8123074 184.46855,84.7603074 C184.37055,84.6563074 184.37555,84.4923074 184.47955,84.3933074 L185.53155,83.4023074 C185.63655,83.3043074 185.79955,83.3093074 185.89855,83.4133074 C185.99655,83.5183074 185.99155,83.6823074 185.88755,83.7803074 L184.83555,84.7713074 C184.78255,84.8203074 184.71555,84.8433074 184.64955,84.8413074 Z M184.51555,85.7533074 C184.77055,85.7443074 185.05955,85.6543074 185.36355,85.4603074 L185.66555,85.2343074 L193.08155,77.9983074 L191.58755,76.1783074 L191.57055,76.1703074 L189.72155,74.2933074 L188.10655,75.6843074 L189.72255,77.5103074 C189.80955,77.6073074 189.80955,77.7553074 189.72355,77.8533074 L187.68055,80.1703074 C187.67655,80.1753074 187.67055,80.1813074 187.66655,80.1853074 L184.37255,83.3873074 C184.36855,83.3913074 184.36255,83.3973074 184.35855,83.4003074 C183.01455,84.5303074 183.49455,85.7903074 184.51555,85.7533074 Z M184.46755,86.2623074 C183.17155,86.2503074 182.37555,84.7853074 183.63055,83.3833074 L184.01055,83.0163074 L186.21655,80.8723074 L185.59755,80.2163074 C185.50455,80.1183074 185.50255,79.9653074 185.59255,79.8653074 L187.50155,77.7383074 L186.93655,77.1173074 C186.84255,77.0153074 186.84655,76.8573074 186.94455,76.7593074 L187.61555,76.0883074 L187.72855,76.0413074 L187.54355,75.8313074 C187.44755,75.7233074 187.45855,75.5573074 187.56855,75.4633074 L189.56555,73.7423074 C189.66955,73.6533074 189.82455,73.6593074 189.92055,73.7563074 L190.29955,74.1423074 L190.58055,73.8103074 C191.65155,72.6053074 193.16855,71.3323074 194.48455,72.4013074 C195.46855,73.2003074 196.21055,73.8503074 196.48355,74.5193074 C196.78355,75.2603074 196.49755,75.9493074 195.72155,76.7353074 C195.62055,76.8373074 195.45455,76.8383074 195.35355,76.7363074 L193.86255,75.2453074 C193.38755,74.8053074 193.10755,74.9323074 192.80455,75.2313074 L192.65655,75.3853074 L194.18355,77.1063074 C194.27855,77.2133074 194.26855,77.3773074 194.16155,77.4723074 C194.10755,77.5193074 194.04055,77.5413074 193.97455,77.5373074 C193.90755,77.5333074 193.84355,77.5043074 193.79555,77.4503074 L192.30255,75.7663074 L192.09955,75.9843074 L193.63255,77.8523074 C193.71755,77.9573074 193.70955,78.1083074 193.61355,78.2033074 L186.01955,85.6133074 C186.01655,85.6163074 186.01055,85.6223074 186.00755,85.6253074 C185.47755,86.0783074 184.93955,86.2663074 184.46755,86.2623074 Z" id="Fill-18"></path>
        </g>
    </g>
</svg>