<?xml version="1.0" encoding="UTF-8"?>
<svg width="12px" height="15px" viewBox="0 0 12 15" version="1.1" xmlns="http://www.w3.org/2000/svg" xmlns:xlink="http://www.w3.org/1999/xlink">
    <!-- Generator: Sketch 52.2 (67145) - http://www.bohemiancoding.com/sketch -->
    <title>Fill 25</title>
    <desc>Created with Sketch.</desc>
    <g id="Page-1" stroke="none" stroke-width="1" fill="none" fill-rule="evenodd">
        <g id="Artboard" transform="translate(-153.000000, -114.000000)" style="fill: #ffffff;">
            <path d="M153.519,116.78 L157.059,116.78 L157.059,116.094 L153.519,116.094 L153.519,116.78 Z M160.714,124.139 L161.425,124.139 L161.425,120.576 L160.714,120.576 L160.714,124.139 Z M160.196,124.139 L160.196,120.576 L158.148,120.576 C157.243,120.576 157.059,119.914 157.059,119.341 L157.059,117.299 L153.519,117.299 L153.519,120.196 C153.519,121.492 153.767,122.785 154.796,123.521 L154.929,123.609 L155.442,122.818 L154.746,122.402 C154.626,122.331 154.584,122.178 154.651,122.056 L155.149,121.141 L154.587,120.789 C154.471,120.717 154.431,120.566 154.496,120.446 L155.084,119.365 C155.152,119.239 155.31,119.192 155.435,119.261 C155.561,119.329 155.608,119.486 155.539,119.612 L155.068,120.479 L155.63,120.831 C155.747,120.903 155.786,121.054 155.721,121.174 L155.225,122.084 L155.939,122.51 C156.065,122.585 156.103,122.75 156.023,122.873 L155.394,123.844 L155.473,123.877 C155.922,124.045 156.468,124.139 157.132,124.139 L160.196,124.139 Z M157.132,124.658 C153.686,124.658 153,122.293 153,120.196 L153,115.834 C153,115.691 153.116,115.575 153.259,115.575 L153.432,115.575 L153.432,114.259 C153.432,114.116 153.548,114 153.691,114 C153.834,114 153.95,114.116 153.95,114.259 L153.95,115.575 L156.629,115.575 L156.629,114.259 C156.629,114.116 156.746,114 156.889,114 C157.032,114 157.147,114.116 157.147,114.259 L157.147,115.575 L157.318,115.575 C157.461,115.575 157.577,115.691 157.577,115.834 L157.577,119.341 C157.577,119.743 157.616,120.058 158.148,120.058 L161.685,120.058 C161.827,120.058 161.944,120.174 161.944,120.317 L161.944,120.454 L164.225,120.454 C164.367,120.454 164.484,120.57 164.484,120.714 C164.484,120.857 164.367,120.973 164.225,120.973 L161.944,120.973 L161.944,123.748 L164.225,123.748 C164.367,123.748 164.484,123.865 164.484,124.007 C164.484,124.15 164.367,124.267 164.225,124.267 L161.944,124.267 L161.944,124.398 C161.944,124.541 161.827,124.658 161.685,124.658 L157.132,124.658 Z M154.832,127.676 C155.066,127.676 155.291,127.608 155.449,127.478 C155.6,127.355 155.71,127.162 155.705,126.865 C155.698,126.386 155.44,125.984 154.961,125.551 L154.906,125.503 L154.864,125.541 C154.411,125.97 154.099,126.414 154.109,126.89 C154.122,127.485 154.55,127.676 154.832,127.676 Z M154.832,128.178 C154.289,128.178 153.627,127.779 153.608,126.901 C153.591,126.103 154.181,125.461 154.737,124.979 C154.829,124.899 154.966,124.897 155.061,124.974 C155.704,125.502 156.195,126.078 156.207,126.857 C156.214,127.301 156.041,127.642 155.767,127.867 C155.5,128.085 155.156,128.178 154.832,128.178 Z" id="Fill-25"></path>
        </g>
    </g>
</svg>