<?xml version="1.0" encoding="UTF-8"?>
<svg width="11px" height="15px" viewBox="0 0 11 15" version="1.1" xmlns="http://www.w3.org/2000/svg" xmlns:xlink="http://www.w3.org/1999/xlink">
    <!-- Generator: Sketch 52.2 (67145) - http://www.bohemiancoding.com/sketch -->
    <title>Fill 30</title>
    <desc>Created with Sketch.</desc>
    <g id="Page-1" stroke="none" stroke-width="1" fill="none" fill-rule="evenodd">
        <g id="Artboard" transform="translate(-156.000000, -155.000000)" style="fill: #ffffff;">
            <path d="M162.17,156.626 C162.393,156.626 162.573,156.444 162.573,156.222 C162.573,156 162.393,155.819 162.17,155.819 C161.948,155.819 161.767,156 161.767,156.222 C161.767,156.444 161.948,156.626 162.17,156.626 Z M157.349,156.626 C157.571,156.626 157.752,156.444 157.752,156.222 C157.752,156 157.571,155.819 157.349,155.819 C157.126,155.819 156.945,156 156.945,156.222 C156.945,156.444 157.126,156.626 157.349,156.626 Z M159.427,157.685 L159.999,157.685 L159.999,155.571 L159.427,155.571 L159.427,157.685 Z M158.551,160.174 L161.006,160.174 L161.006,158.256 L158.551,158.256 L158.551,160.174 Z M156.571,160.174 L157.979,160.174 L157.979,158.256 L156.571,158.256 L156.571,160.174 Z M164.667,160.319 C164.534,160.329 164.408,160.247 164.37,160.114 C164.253,159.705 163.862,159.351 163.41,159.276 C163.254,159.25 163.148,159.104 163.174,158.948 C163.2,158.792 163.347,158.687 163.502,158.712 C164.171,158.822 164.74,159.334 164.919,159.956 C164.963,160.107 164.876,160.265 164.723,160.308 C164.705,160.314 164.686,160.318 164.667,160.319 Z M165.404,161.994 L165.405,161.298 C165.405,159.695 164.721,158.256 162.491,158.256 L161.578,158.256 L161.578,160.174 L162.056,160.174 C162.981,160.174 163.474,160.839 163.474,161.809 L163.474,161.994 L165.404,161.994 Z M165.403,163.127 L165.404,162.565 L163.474,162.565 L163.474,163.127 L165.403,163.127 Z M163.188,163.698 C163.031,163.698 162.903,163.571 162.903,163.412 L162.903,161.809 C162.903,161.146 162.655,160.744 162.056,160.744 L156.286,160.744 C156.127,160.744 156,160.617 156,160.458 L156,157.97 C156,157.813 156.127,157.685 156.286,157.685 L158.856,157.685 L158.856,156.53 L158.273,156.53 L158.246,156.601 C158.099,156.951 157.752,157.197 157.349,157.197 C156.81,157.197 156.373,156.76 156.373,156.222 C156.373,155.684 156.81,155.248 157.349,155.248 C157.785,155.248 158.155,155.536 158.279,155.932 L158.286,155.96 L158.856,155.96 L158.856,155.459 C158.856,155.22 159.041,155 159.303,155 L160.123,155 C160.389,155 160.571,155.223 160.571,155.459 L160.571,155.96 L161.237,155.96 L161.273,155.843 C161.421,155.494 161.767,155.248 162.17,155.248 C162.709,155.248 163.145,155.684 163.145,156.222 C163.145,156.76 162.709,157.197 162.17,157.197 C161.767,157.197 161.421,156.951 161.273,156.601 L161.25,156.53 L160.571,156.53 L160.571,157.685 L162.491,157.685 C165.112,157.685 165.976,159.476 165.976,161.298 L165.975,163.413 C165.975,163.571 165.846,163.698 165.688,163.698 L163.188,163.698 Z M164.4,168.713 C164.243,168.708 164.12,168.575 164.126,168.418 C164.131,168.259 164.265,168.136 164.422,168.143 C164.624,168.15 164.787,168.055 164.904,167.908 C165.026,167.753 165.078,167.563 165.063,167.429 C165.047,167.273 165.161,167.133 165.318,167.116 C165.474,167.099 165.615,167.213 165.632,167.37 C165.664,167.671 165.554,168.006 165.352,168.262 C165.157,168.509 164.856,168.703 164.477,168.713 L164.4,168.713 Z M164.422,169.003 C165.226,169.003 165.88,168.351 165.88,167.547 C165.88,166.812 165.327,165.823 164.572,165.059 L164.419,164.918 L164.28,165.054 C163.536,165.806 162.966,166.813 162.966,167.547 C162.966,168.351 163.619,169.003 164.422,169.003 Z M164.422,169.575 C163.303,169.575 162.395,168.667 162.395,167.547 C162.395,166.464 163.284,165.125 164.237,164.314 L164.608,164.314 C165.583,165.15 166.451,166.464 166.451,167.547 C166.451,168.667 165.542,169.575 164.422,169.575 Z" id="Fill-30"></path>
        </g>
    </g>
</svg>